<svg xmlns="http://www.w3.org/2000/svg" width="157" height="30" fill="none" viewBox="0 0 157 30"><path fill="#fff" fill-rule="evenodd" d="M1.68644 6.63553C7.06465 0.420668 18.5418 -2.7763 30.1905 3.11211C31.0269 3.53487 31.534 4.40462 31.486 5.33292L31.4784 5.4797C31.4761 5.52873 31.472 5.57804 31.4664 5.62678C31.4443 5.81768 31.4184 6.01839 31.3892 6.22689C23.9354 5.03387 13.9041 4.10644 1.68644 6.63553ZM137.534 4.64606L136.012 11.5721H135.964C135.312 10.3332 133.79 9.44843 131.592 9.44843C127.292 9.44843 125.214 12.9667 125.214 16.7505C125.214 19.339 127.195 21.5076 129.9 21.5076C132.317 21.5076 133.355 20.6892 134.466 19.4056H134.515L134.176 21.2423H138.162C138.21 20.7777 138.283 20.2024 138.428 19.5166L141.81 4.64606H137.534ZM131.785 18.4542C130.408 18.4542 129.708 17.5029 129.708 16.0863C129.708 14.2944 130.94 12.5021 132.993 12.5021C134.443 12.5021 135.07 13.6965 135.07 14.8475C135.07 16.3741 133.839 18.4542 131.785 18.4542ZM60.5175 4.64608L56.749 21.2423H61.1452L64.9139 4.64608H60.5175ZM155.299 6.91938C154.36 6.91938 153.598 7.67464 153.598 8.60351C153.598 9.53267 154.36 10.2879 155.299 10.2879C156.237 10.2879 157 9.53267 157 8.60351C157 7.67464 156.237 6.91938 155.299 6.91938ZM155.299 9.96956C154.539 9.96956 153.919 9.35589 153.919 8.60351C153.919 7.84998 154.539 7.23659 155.299 7.23659C156.061 7.23659 156.679 7.84998 156.679 8.60351C156.679 9.35589 156.061 9.96956 155.299 9.96956ZM154.433 9.38153H154.79L154.936 8.70211H155.315C155.586 8.70211 155.58 8.79439 155.53 9.03144C155.492 9.21052 155.486 9.29934 155.493 9.38153H155.898L155.907 9.33568C155.837 9.30626 155.849 9.24311 155.904 8.98991C155.975 8.66635 155.907 8.61185 155.777 8.551C155.963 8.49274 156.095 8.32866 156.136 8.13804C156.168 7.98779 156.156 7.64837 155.69 7.64837H154.804L154.433 9.38153ZM154.999 8.41056L155.099 7.94627H155.555C155.77 7.94627 155.781 8.08267 155.763 8.17437C155.725 8.34538 155.619 8.41056 155.429 8.41056H154.999ZM42.8722 16.8014C42.541 18.082 42.1592 19.5581 41.9251 21.2422H38.3737L38.5671 19.627L38.5187 19.5829V19.627C37.6011 20.9544 35.9823 21.5075 34.2912 21.5075C31.5858 21.5075 30.0882 20.4013 30.0882 18.1664C30.0882 15.3345 33.1802 13.9399 37.0211 13.9399C37.8577 13.9399 38.6943 14.0015 39.2943 14.0458L39.3641 14.0509C39.4125 13.896 39.4125 13.7412 39.4125 13.5863C39.4125 12.7673 38.5187 12.1032 37.0936 12.1032C35.5235 12.1032 34.4605 12.3252 33.0112 13.0107L33.4458 10.1119C34.7262 9.71368 36.1029 9.44838 38.0599 9.44838C41.0552 9.44838 43.5191 10.5324 43.5191 13.3649C43.5191 14.2999 43.2242 15.4403 42.8722 16.8014ZM34.1948 17.7018C34.1948 18.233 34.7506 18.8524 35.6683 18.8524C37.5283 18.8524 38.6396 17.6799 38.9534 16.1304C38.5913 16.0644 38.0599 16.0644 37.7943 16.0644C35.7166 15.998 34.1948 16.6838 34.1948 17.7018ZM49.6267 16.9937L53.9023 9.71357H58.5164L50.2551 22.7694C48.9748 24.8047 47.5494 26.1549 44.7711 26.1549C43.2254 26.1549 42.1866 25.911 41.3654 25.6681L42.2833 22.7694L42.3394 22.785C42.8793 22.9359 43.4703 23.101 44.264 23.101C45.4962 23.101 46.2932 22.3711 46.8004 21.1977L44.0225 9.71357H48.4431L49.5784 16.9937H49.6267ZM71.7462 9.4484C66.8184 9.4484 63.6297 12.1923 63.6297 16.2412C63.6297 19.1402 65.5139 21.5076 70.176 21.5076C74.8866 21.5076 78.2923 19.4056 78.2923 14.604C78.2923 11.7055 76.0218 9.4484 71.7462 9.4484ZM70.4901 18.7195C69.0163 18.742 68.1229 17.7018 68.1229 16.1529C68.1229 14.3162 69.4274 12.2362 71.5286 12.2362C73.2197 12.2362 73.7991 13.3649 73.7991 14.5596C73.7991 17.1706 72.5191 18.7195 70.4901 18.7195ZM88.0493 9.44829C86.2613 9.44829 84.8603 10.7319 84.1597 12.0812H84.1114L84.5953 9.7136H80.5591C80.4388 10.7538 80.2454 11.7271 80.0275 12.7228L78.0713 21.2421H82.4194L83.6526 15.9316C83.9669 14.2279 85.0538 12.7672 86.8893 12.7672C87.7108 12.7672 88.3389 12.8558 88.8941 13.2546L89.8849 9.7358C89.3052 9.51462 88.6291 9.44829 88.0493 9.44829ZM99.9545 16.1747L105.244 5.79709H112.443L108.868 21.2424H104.472L107.539 8.58514H107.491L100.872 21.2424H96.6208L95.9927 8.58514H95.9443L93.0216 21.2424H88.9147L92.5869 5.79709H99.6408L99.9062 16.1747H99.9545ZM114.251 10.1119C115.531 9.71368 116.908 9.44838 118.865 9.44838C121.86 9.44838 124.324 10.5324 124.324 13.3649C124.324 14.2998 124.029 15.4401 123.677 16.8011C123.346 18.0818 122.964 19.5579 122.73 21.2422H119.179L119.372 19.627L119.324 19.5829V19.627C118.406 20.9544 116.787 21.5075 115.097 21.5075C112.391 21.5075 110.894 20.4013 110.894 18.1664C110.894 15.3345 113.985 13.9399 117.826 13.9399C118.662 13.9399 119.497 14.0014 120.097 14.0456L120.169 14.0509C120.218 13.896 120.218 13.7412 120.218 13.5863C120.218 12.7673 119.324 12.1032 117.899 12.1032C116.329 12.1032 115.266 12.3252 113.817 13.0107L114.251 10.1119ZM115 17.7018C115 18.233 115.556 18.8524 116.474 18.8524C118.333 18.8524 119.444 17.6799 119.758 16.1304C119.397 16.0644 118.865 16.0644 118.6 16.0644C116.522 15.998 115 16.6838 115 17.7018ZM148.039 9.44823C151.348 9.44823 153.836 10.9752 153.836 14.4712C153.836 14.9358 153.691 15.9541 153.522 16.6395H144.608C144.657 17.8787 145.333 18.8523 147.99 18.8523C149.15 18.8523 150.72 18.5873 151.928 18.0561L151.372 20.866C149.85 21.2868 148.232 21.5077 146.975 21.5077C142.773 21.5077 140.502 19.1404 140.502 16.2413C140.502 13.5643 142.434 9.44823 148.039 9.44823ZM148.087 12.1033C146.203 12.1033 145.188 13.2765 144.874 14.3827H150.213C150.213 13.1435 149.681 12.1033 148.087 12.1033ZM27.2549 11.892C24.3865 12.1319 23.2161 13.9882 21.6882 16.4111L21.6874 16.4125C21.612 16.5321 21.5357 16.653 21.4584 16.7752C20.1792 18.7938 16.0085 26.044 14.2096 29.1807C16.315 30.1799 18.2976 30.2191 20.4394 29.5478C21.9108 29.0872 22.6446 28.727 23.4807 28.1229C23.7592 27.9213 24.0219 27.7021 24.2055 27.4423L24.2722 27.3506C24.2966 27.3174 24.3202 27.2825 24.343 27.2477C27.0481 23.0722 28.9847 16.6889 29.8986 13.2558C30.0081 12.844 30.1133 12.4333 30.2144 12.0273C29.1088 11.8499 28.1967 11.8133 27.2549 11.892ZM0 14.6368C2.13532 13.8195 6.14087 12.51 11.3178 11.8329C14.4258 11.4286 15.8943 12.2689 14.921 15.2591C13.826 18.6225 12.2628 21.8105 9.4094 26.0085C9.2349 25.8767 9.05749 25.7414 8.87542 25.6007C4.02402 21.8405 1.11537 18.4369 0.232298 15.4925C0.226275 15.4747 0.205539 15.4135 0.204793 15.4105C0.189353 15.3655 0.097881 15.0838 0 14.6368Z" clip-rule="evenodd"/></svg>